PathFileType	4	(X/Y/Z)	/Users/itak/Documents/Research/Walk-IL/dataset/trc/00194_00008.trc
DataRate	CameraRate	NumFrames	NumMarkers	Units	OrigDataRate	OrigDataStartFrame	OrigNumFrames
100.000000	100.000000	4	53	mm	100.000000	506	810
Frame#	Time	RPSI			LPSI			L3			STRN			T10			C7			CLAV			RBAK			LBAK			LSHO			LUPA			LAEL			LAOL			LWTS			LWPS			LFRA			LIFD			LHPS			LHTS			RSHO			RUPA			RAEL			RAOL			RWTS			RWPS			RFRA			RIFD			RHTS			RHPS			RBHD			LFHD			RFHD			LBHD			LHIP			RHIP			RASI			LASI			LKNE			LTHI			LANK			LTIP			LTOE			LMT1			LMT5			LHEE			RKNE			RTHI			RANK			RTIP			RTOE			RMT1			RMT5			RHEE			
		X1	Y1	Z1	X2	Y2	Z2	X3	Y3	Z3	X4	Y4	Z4	X5	Y5	Z5	X6	Y6	Z6	X7	Y7	Z7	X8	Y8	Z8	X9	Y9	Z9	X10	Y10	Z10	X11	Y11	Z11	X12	Y12	Z12	X13	Y13	Z13	X14	Y14	Z14	X15	Y15	Z15	X16	Y16	Z16	X17	Y17	Z17	X18	Y18	Z18	X19	Y19	Z19	X20	Y20	Z20	X21	Y21	Z21	X22	Y22	Z22	X23	Y23	Z23	X24	Y24	Z24	X25	Y25	Z25	X26	Y26	Z26	X27	Y27	Z27	X28	Y28	Z28	X29	Y29	Z29	X30	Y30	Z30	X31	Y31	Z31	X32	Y32	Z32	X33	Y33	Z33	X34	Y34	Z34	X35	Y35	Z35	X36	Y36	Z36	X37	Y37	Z37	X38	Y38	Z38	X39	Y39	Z39	X40	Y40	Z40	X41	Y41	Z41	X42	Y42	Z42	X43	Y43	Z43	X44	Y44	Z44	X45	Y45	Z45	X46	Y46	Z46	X47	Y47	Z47	X48	Y48	Z48	X49	Y49	Z49	X50	Y50	Z50	X51	Y51	Z51	X52	Y52	Z52	X53	Y53	Z53	

507	5.06	457.7724609375	1023.018432617188	-602.3722534179688	526.3833618164062	1026.30224609375	-704.9859619140625	482.751708984375	1056.925903320312	-647.9303588867188	706.3287963867188	1273.861206054688	-522.9140625	443.9599914550781	1217.128784179688	-661.2503051757812	499.7950744628906	1487.422485351562	-633.7229614257812	683.7717895507812	1386.743041992188	-545.2151489257812	398.1082763671875	1310.05419921875	-570.3272094726562	534.4625244140625	1465.668701171875	-727.4114379882812	637.0372924804688	1456.361450195312	-766.6668701171875	629.5986328125	1327.371337890625	-853.2776489257812	646.469970703125	1116.961059570312	-884.6439208984375	596.91259765625	1090.050903320312	-819.05517578125	765.223388671875	890.820556640625	-877.55712890625	683.6244506835938	868.734375	-920.0700073242188	664.4572143554688	1010.074401855469	-909.4081420898438	795.4541625976562	703.2613525390625	-890.8934936523438	708.922607421875	800.4755859375	-924.4904174804688	780.3104858398438	817.8138427734375	-908.9882202148438	482.2775573730469	1463.497680664062	-442.6837463378906	433.6864013671875	1395.551513671875	-391.833251953125	394.3760375976562	1104.72265625	-363.4765930175781	433.2419128417969	1101.280883789062	-453.6226501464844	533.46240234375	880.0741577148438	-337.6932373046875	447.5029907226562	858.9088134765625	-325.9011535644531	410.8458251953125	1030.819702148438	-339.7733764648438	558.8323974609375	692.5250244140625	-366.7339782714844	555.3843383789062	785.7175903320312	-325.1367492675781	475.3752746582031	775.8845825195312	-322.46923828125	519.2044067382812	1643.765502929688	-539.9801025390625	730.7589721679688	1690.572021484375	-537.7432861328125	653.6608276367188	1675.807006835938	-434.4777221679688	592.711669921875	1666.9326171875	-651.6439819335938	682.4039306640625	981.2814331054688	-747.2816772460938	511.7384338378906	965.3184814453125	-415.6344604492188	608.4959106445312	1001.653991699219	-409.7895812988281	745.7427978515625	1018.82470703125	-627.3129272460938	839.5203857421875	512.23583984375	-594.486572265625	810.7415161132812	645.2659912109375	-654.681640625	850.179931640625	25.7294979095459	-595.9617919921875	860.8670654296875	279.8423767089844	-598.8748168945312	983.7679443359375	68.83327484130859	-428.6192321777344	916.571044921875	61.12097549438477	-428.2421264648438	952.3038330078125	28.76327705383301	-542.8760375976562	765.723388671875	32.25909423828125	-582.848876953125	474.4047241210938	476.3946533203125	-534.8551025390625	532.7719116210938	727.9351806640625	-426.888916015625	229.2736053466797	81.05184936523438	-739.0447998046875	450.4827270507812	360.8433837890625	-587.4696044921875	439.5889587402344	42.5975341796875	-743.0728759765625	396.8719482421875	55.14089965820312	-788.0090942382812	322.8353881835938	35.18921279907227	-687.7916870117188	201.56396484375	124.1408081054688	-809.5762329101562	
508	5.07	466.9227600097656	1023.743591308594	-599.1937255859375	536.9039306640625	1027.756591796875	-701.1342163085938	492.0297241210938	1058.195556640625	-644.5892333984375	714.9225463867188	1274.973266601562	-517.654296875	453.9125061035156	1218.249633789062	-658.4644165039062	509.6918334960938	1488.623901367188	-630.7581176757812	692.6364135742188	1387.861328125	-540.3206787109375	407.0211181640625	1311.493530273438	-568.1220703125	545.1320190429688	1466.620239257812	-724.055908203125	648.24267578125	1457.247924804688	-762.3264770507812	641.5393676757812	1328.050048828125	-848.66943359375	658.3235473632812	1117.59814453125	-879.3480224609375	608.2149658203125	1090.929321289062	-814.116943359375	775.373046875	890.6348876953125	-871.5715942382812	693.860107421875	869.2131958007812	-914.5060424804688	675.7785034179688	1010.657653808594	-903.9322509765625	803.6948852539062	702.6366577148438	-884.4658813476562	718.4610595703125	800.7265625	-918.7801513671875	789.8532104492188	817.2463989257812	-902.8812255859375	490.2674865722656	1464.921142578125	-439.9201965332031	440.9935913085938	1397.161254882812	-389.5310668945312	400.1195068359375	1106.727783203125	-361.880126953125	440.4018859863281	1103.012939453125	-451.4140930175781	536.1312866210938	880.4613037109375	-334.0022888183594	449.8107299804688	860.4269409179688	-323.5346984863281	415.613525390625	1032.7958984375	-337.9745788574219	559.5380249023438	692.5726318359375	-362.608154296875	556.5755615234375	785.8091430664062	-321.0474853515625	476.5440979003906	777.1082763671875	-319.6521606445312	528.3626708984375	1644.963012695312	-536.6538696289062	740.0140991210938	1691.242431640625	-531.4833984375	661.58740234375	1676.343017578125	-429.2659301757812	603.425537109375	1668.268676757812	-647.222412109375	693.1254272460938	983.3680419921875	-741.9418334960938	518.910400390625	965.4821166992188	-412.1839904785156	615.704833984375	1002.398620605469	-405.4326782226562	755.3421630859375	1020.512573242188	-621.2589721679688	846.6268310546875	512.6275024414062	-589.1377563476562	819.6651000976562	646.796142578125	-648.719482421875	850.8824462890625	25.95094680786133	-595.7526245117188	865.6593017578125	279.8919982910156	-595.358154296875	983.9791870117188	65.28092956542969	-426.5871276855469	916.7332153320312	58.33410263061523	-426.9505004882812	952.9644165039062	28.31787300109863	-542.5132446289062	766.6184692382812	32.89676284790039	-583.0385131835938	484.8048095703125	475.0195922851562	-527.457275390625	541.2766723632812	728.07373046875	-422.2424011230469	232.4748077392578	86.38929748535156	-737.9752197265625	458.7233276367188	359.2856140136719	-580.1453857421875	439.7472229003906	42.54461288452148	-742.7222290039062	398.4854431152344	56.20547866821289	-787.451904296875	323.6586303710938	35.22622680664062	-687.7992553710938	207.3919982910156	132.1809387207031	-807.6075439453125	
509	5.08	475.9081115722656	1024.559326171875	-596.1363525390625	547.3153076171875	1029.329345703125	-697.3395385742188	501.1578979492188	1059.562866210938	-641.3577880859375	723.2774047851562	1276.212646484375	-512.30517578125	463.7413940429688	1219.543701171875	-655.714111328125	519.5000610351562	1489.967895507812	-627.7095947265625	701.3255004882812	1389.121459960938	-535.30078125	415.6931457519531	1313.082153320312	-565.9799194335938	555.7721557617188	1467.765991210938	-720.5867309570312	659.3985595703125	1458.351684570312	-757.8135375976562	653.51025390625	1328.975341796875	-843.9349365234375	670.253662109375	1118.472900390625	-873.905517578125	619.4620971679688	1092.0625	-809.1486206054688	785.5242309570312	890.6559448242188	-865.2522583007812	704.2156982421875	869.9581909179688	-908.79443359375	687.224853515625	1011.495239257812	-898.2986450195312	811.84228515625	702.2088623046875	-877.6497802734375	728.0910034179688	801.2328491210938	-912.88427734375	799.4525146484375	816.9072875976562	-896.4138793945312	498.0753784179688	1466.492431640625	-437.1287231445312	448.1121215820312	1398.918823242188	-387.2120971679688	405.7879638671875	1108.871337890625	-360.1695556640625	447.3821411132812	1104.879028320312	-449.1240844726562	538.8619384765625	881.11767578125	-330.2752380371094	452.2071228027344	862.1705322265625	-321.0584716796875	420.3808288574219	1034.933349609375	-336.0935974121094	560.3915405273438	692.9271850585938	-358.5039367675781	557.8963623046875	786.1993408203125	-316.9832153320312	477.86474609375	778.5799560546875	-316.7624816894531	537.5093383789062	1646.334838867188	-533.1689453125	749.2384643554688	1691.96435546875	-525.1443481445312	669.5291137695312	1676.976806640625	-423.9455871582031	614.0794067382812	1669.736450195312	-642.6524658203125	703.6148071289062	985.47314453125	-736.7115478515625	525.9208984375	965.7667846679688	-408.8690490722656	622.77880859375	1003.271545410156	-401.2396850585938	764.7757568359375	1022.25732421875	-615.363525390625	852.96337890625	512.8912353515625	-584.4765625	827.7615966796875	648.0680541992188	-643.39794921875	851.3370361328125	26.1848201751709	-595.5792846679688	869.5579223632812	279.83837890625	-592.4093017578125	983.8990478515625	62.4134521484375	-424.881591796875	916.6614379882812	56.10481262207031	-425.8946838378906	953.3975830078125	28.23458862304688	-542.2470092773438	767.2224731445312	33.29793930053711	-583.16015625	495.7140502929688	473.5570678710938	-519.4129638671875	549.8446655273438	728.3418579101562	-417.4483642578125	236.4170989990234	92.36322784423828	-736.7254638671875	467.486083984375	357.7773742675781	-572.2481689453125	440.0803527832031	42.37786483764648	-742.3867797851562	400.5521850585938	57.3610954284668	-786.84228515625	324.7025451660156	35.48086166381836	-687.9031372070312	214.3175048828125	140.8765106201172	-805.3016967773438	
510	5.09	484.72216796875	1025.466918945312	-593.2294311523438	557.5758666992188	1031.024780273438	-693.6302490234375	510.2187194824219	1061.030151367188	-638.248779296875	731.3831176757812	1277.546020507812	-506.8584899902344	473.4092712402344	1221.001220703125	-653.0455322265625	529.2156982421875	1491.42822265625	-624.5848388671875	709.826171875	1390.488403320312	-530.145751953125	424.1065063476562	1314.779174804688	-563.9533081054688	566.422607421875	1469.099243164062	-717.00732421875	670.5040893554688	1459.640625	-753.1185302734375	665.5106201171875	1330.123901367188	-839.0748901367188	682.2459716796875	1119.557861328125	-868.3352661132812	630.5581665039062	1093.425659179688	-804.1858520507812	795.688232421875	890.8732299804688	-858.598876953125	714.71240234375	870.9356689453125	-902.9381103515625	698.7904663085938	1012.556030273438	-892.5197143554688	819.9494018554688	701.9829711914062	-870.4202880859375	737.8577880859375	801.9707641601562	-906.7969970703125	809.1365966796875	816.78466796875	-889.5797729492188	505.6734008789062	1468.175903320312	-434.3234558105469	455.0121154785156	1400.782470703125	-384.9053649902344	411.3398132324219	1111.111450195312	-358.3553466796875	454.1313781738281	1106.835815429688	-446.7669067382812	541.6820068359375	882.0343017578125	-326.5140075683594	454.7030029296875	864.102294921875	-318.459228515625	425.1082763671875	1037.185302734375	-334.128173828125	561.453857421875	693.56689453125	-354.4307556152344	559.4051513671875	786.88037109375	-312.9517517089844	479.3796997070312	780.2622680664062	-313.7968139648438	546.6238403320312	1647.868530273438	-529.5205688476562	758.4080810546875	1692.711181640625	-518.743408203125	677.4647827148438	1677.688598632812	-418.5271301269531	624.6424560546875	1671.326416015625	-637.9406127929688	713.8829956054688	987.5592041015625	-731.5880126953125	532.7207641601562	966.1547241210938	-405.7049255371094	629.6517333984375	1004.225769042969	-397.2200622558594	774.0257568359375	1023.988342285156	-609.6087646484375	858.516845703125	513.0122680664062	-580.5440063476562	834.9595336914062	649.009033203125	-638.7784423828125	851.5906372070312	26.41286277770996	-595.4258422851562	872.6036987304688	279.6665649414062	-590.0641479492188	983.63818359375	60.10700988769531	-423.4542236328125	916.4471435546875	54.35684967041016	-425.0274658203125	953.6466064453125	28.37250328063965	-542.0206298828125	767.5776977539062	33.52270126342773	-583.2066040039062	507.068115234375	472.0684204101562	-510.781494140625	558.397705078125	728.7566528320312	-412.5144348144531	241.1939392089844	99.01190948486328	-735.2489013671875	476.81640625	356.4069213867188	-563.876220703125	440.6652526855469	42.05586242675781	-741.9931030273438	403.1595764160156	58.66323471069336	-786.095703125	326.0180358886719	36.09178161621094	-688.0650634765625	222.3980407714844	150.2011413574219	-802.6079711914062	
